<svg width="400" height="400" viewBox="0 0 400 400" fill="none" xmlns="http://www.w3.org/2000/svg">
<path d="M277.34 165.178C278.92 167.978 283.06 173.318 283.6 173.178C287.36 171.918 290.92 170.178 294.56 168.658C296.11 168.082 297.576 167.302 298.92 166.338C305.6 161.138 307.26 154.618 298.92 152.718C297.433 152.34 295.872 152.358 294.395 152.773C292.917 153.187 291.574 153.982 290.5 155.078C289.96 152.203 288.361 149.634 286.02 147.878C284.678 147.198 283.164 146.934 281.671 147.119C280.179 147.305 278.775 147.931 277.64 148.918C272.7 152.698 274.8 160.618 277.34 165.178V165.178ZM284.58 147.998C287.68 149.098 289.1 153.038 289.88 155.998C290.06 156.678 291.56 155.158 291.88 154.978C292.787 154.159 293.883 153.578 295.07 153.288C296.257 152.998 297.498 153.009 298.68 153.318C304.3 154.498 305.62 157.938 301.7 162.738C297.78 167.538 295.84 167.098 283.7 172.478C281.916 170.605 280.328 168.554 278.96 166.358C276.28 162.098 274.14 155.098 276.96 150.938C277.805 149.759 278.977 148.852 280.331 148.329C281.685 147.807 283.162 147.692 284.58 147.998V147.998ZM281.58 204.258C281.402 203.262 281.002 202.319 280.409 201.499C279.817 200.679 279.047 200.003 278.158 199.521C277.268 199.039 276.282 198.763 275.271 198.714C274.261 198.665 273.252 198.844 272.32 199.238C268.16 201.438 269.02 207.718 271.26 212.018C272.71 214.464 274.464 216.715 276.48 218.718C279.38 217.598 282.24 216.358 285.12 215.158C286.378 214.666 287.558 213.993 288.62 213.158C294.98 208.078 293.78 203.458 288.26 202.458C287.085 202.184 285.86 202.205 284.694 202.519C283.529 202.833 282.459 203.431 281.58 204.258ZM287.58 213.238C286.22 214.178 281.02 216.038 276.62 217.998C273.546 215.079 271.392 211.325 270.42 207.198C268.42 196.798 280.22 197.678 280.98 205.198C280.98 205.598 282.22 204.998 282.72 204.478C283.288 203.96 283.975 203.589 284.72 203.398C285.785 203.076 286.917 203.041 288 203.298C294.64 204.578 292.54 209.778 287.54 213.238H287.58ZM311.76 184.158C311.755 183.645 311.631 183.14 311.399 182.682C311.166 182.224 310.831 181.826 310.42 181.518C307.82 179.778 304.24 183.898 308.58 189.158C309.44 190.218 311.52 192.358 312.06 191.978C313.62 191.058 315.24 190.178 316.78 189.178C319.06 187.678 321.26 183.978 319.04 182.438C317.82 181.816 316.418 181.647 315.084 181.962C313.751 182.277 312.573 183.055 311.76 184.158V184.158ZM318.18 186.658C317.24 188.038 316.98 188.018 311.88 191.398C309.793 190.026 308.251 187.967 307.52 185.578C306.7 182.418 309.08 180.858 310.62 182.638C311.12 183.218 311.26 186.018 311.94 185.238C312.626 184.286 313.581 183.562 314.683 183.159C315.785 182.756 316.982 182.693 318.12 182.978C319.88 183.598 318.92 185.598 318.18 186.658V186.658ZM96.6402 187.998C90.8002 188.378 93.0202 196.758 95.3002 199.818C97.5006 202.743 99.8644 205.541 102.38 208.198C104.597 207.6 106.718 206.691 108.68 205.498C110.641 204.372 112.366 202.878 113.76 201.098C117.6 196.178 115.28 191.098 111.54 191.498C110.437 191.698 109.412 192.204 108.581 192.957C107.75 193.709 107.147 194.68 106.84 195.758C106.214 193.532 104.88 191.571 103.04 190.17C101.199 188.77 98.9527 188.008 96.6402 187.998V187.998ZM102.64 191.198C104.219 192.671 105.419 194.503 106.14 196.538C106.16 196.627 106.21 196.706 106.281 196.762C106.352 196.819 106.44 196.85 106.53 196.85C106.621 196.85 106.709 196.819 106.78 196.762C106.85 196.706 106.9 196.627 106.92 196.538C107.74 194.718 108.78 192.818 110.92 192.378C113.06 191.938 114.92 193.918 114.92 196.138C114.92 199.638 111.3 203.298 108.24 205.038C106.353 206.05 104.387 206.907 102.36 207.598C96.1802 199.598 95.2802 198.858 94.3602 196.398C93.6602 194.398 92.7002 190.058 95.5802 189.118C96.8502 188.905 98.152 188.977 99.3906 189.33C100.629 189.683 101.774 190.307 102.74 191.158L102.64 191.198ZM97.7402 104.598C94.6002 105.778 97.0202 109.918 98.8202 111.258C100.62 112.598 101.98 113.258 103.56 114.398C104.08 114.858 106.22 112.658 106.7 112.158C108.38 110.438 109.94 107.458 108.7 105.278C107.46 103.098 104.7 103.518 104.14 106.818C103.435 105.831 102.44 105.088 101.293 104.69C100.147 104.292 98.9055 104.26 97.7402 104.598V104.598ZM106.78 104.778C108.78 104.978 109.26 108.458 106.34 111.598C105.53 112.402 104.661 113.144 103.74 113.818C99.0602 110.398 98.8402 110.338 98.1802 109.438C97.5202 108.538 96.1802 106.418 97.7002 105.618C98.2598 105.367 98.8665 105.237 99.4802 105.237C100.094 105.237 100.701 105.367 101.26 105.618C102.359 106.169 103.301 106.988 104 107.998C104.68 108.818 104.72 104.578 106.78 104.778ZM61.8402 280.818C55.6887 280.692 49.7172 278.72 44.7002 275.158C44.0402 274.678 43.0602 273.498 42.1202 273.818C41.1802 274.138 41.0802 276.678 38.5602 279.058C37.5529 280.035 36.3419 280.777 35.014 281.23C33.6861 281.683 32.2743 281.836 30.8802 281.678C30.6002 281.678 30.5402 282.118 30.8802 282.158C33.1121 282.414 35.3677 281.956 37.3227 280.849C39.2777 279.742 40.8313 278.044 41.7602 275.998C41.9202 275.658 42.1402 274.538 42.5802 274.518C43.0202 274.498 46.1402 277.018 47.1802 277.598C51.6484 280.112 56.7157 281.363 61.8402 281.218C61.8932 281.218 61.9441 281.197 61.9816 281.16C62.0191 281.122 62.0402 281.071 62.0402 281.018C62.0402 280.965 62.0191 280.914 61.9816 280.877C61.9441 280.839 61.8932 280.818 61.8402 280.818V280.818ZM73.7802 275.638C70.1002 274.358 66.6202 272.218 62.6602 272.018C60.9727 271.942 59.2934 272.295 57.7791 273.043C56.2647 273.792 54.9647 274.912 54.0002 276.298C53.7802 276.598 54.2802 276.878 54.4802 276.578C55.4858 275.192 56.854 274.109 58.4347 273.449C60.0153 272.79 61.7472 272.578 63.4402 272.838C67.0202 273.338 70.2402 275.258 73.6602 276.238C73.7283 276.232 73.7925 276.203 73.8432 276.157C73.8939 276.111 73.9285 276.05 73.942 275.983C73.9554 275.916 73.9469 275.846 73.9178 275.784C73.8887 275.722 73.8404 275.671 73.7802 275.638V275.638ZM364 380.798C359.36 379.718 357.64 375.078 357.08 374.058C356.76 373.458 356.38 372.178 355.5 372.338C355.08 372.483 354.717 372.756 354.46 373.118C350.46 377.978 346.36 378.958 343.9 378.738C343.56 378.738 343.58 379.218 343.9 379.258C346.153 379.445 348.408 378.913 350.34 377.738C351.26 377.198 354.96 373.738 355.36 373.378C355.76 373.018 357.94 377.538 358.92 378.458C360.244 379.9 361.997 380.875 363.92 381.238C363.979 381.249 364.039 381.236 364.087 381.202C364.136 381.169 364.17 381.117 364.18 381.058C364.191 381 364.178 380.94 364.144 380.891C364.11 380.842 364.059 380.809 364 380.798V380.798ZM378.84 375.538C374.14 376.078 373.06 373.158 369.82 372.038C365.16 370.458 364.7 375.638 361.82 375.078C361.42 375.078 361.24 375.618 361.64 375.698C362.327 375.774 363.022 375.676 363.661 375.414C364.3 375.152 364.864 374.734 365.3 374.198C366.76 372.838 367.76 372.058 370 372.978C371.467 373.81 372.889 374.718 374.26 375.698C374.973 376.095 375.759 376.342 376.571 376.425C377.382 376.507 378.202 376.423 378.98 376.178C379.24 375.998 379.24 375.498 378.84 375.538V375.538ZM199.78 77.4384C200.22 77.6181 200.696 77.69 201.169 77.6483C201.642 77.6065 202.099 77.4523 202.5 77.1984C202.92 76.9784 202.64 76.2384 202.16 76.3984C201.575 76.5769 200.971 76.6844 200.36 76.7184C200.08 76.7184 200.1 76.5384 200.16 76.2784C200.793 73.7301 200.855 71.0733 200.34 68.4984C200.34 68.2384 199.86 68.2984 199.9 68.4984C200.96 74.7584 198.42 76.6784 199.78 77.4384ZM203.42 84.9984C204.507 84.8335 205.527 84.3732 206.37 83.6678C207.213 82.9624 207.846 82.039 208.2 80.9984C208.34 80.6184 207.68 80.2384 207.5 80.5984C204.3 86.5984 198.96 83.3384 197.18 82.1184C196.92 81.9584 196.7 82.3584 196.94 82.5184C198.743 84.0784 201.036 84.9561 203.42 84.9984V84.9984ZM196.26 67.3584C195.961 67.8733 195.538 68.3058 195.031 68.6173C194.523 68.9288 193.946 69.1094 193.352 69.1431C192.757 69.1768 192.163 69.0625 191.624 68.8103C191.084 68.5582 190.616 68.1762 190.26 67.6984C190.02 67.4184 189.64 67.8184 189.86 68.0784C190.322 68.6696 190.906 69.1542 191.572 69.4994C192.238 69.8445 192.971 70.042 193.72 70.0784C194.445 70.0806 195.153 69.8641 195.752 69.4574C196.352 69.0506 196.815 68.4724 197.08 67.7984C197.139 67.6897 197.151 67.5622 197.116 67.4441C197.08 67.3259 196.999 67.2268 196.89 67.1684C196.781 67.1101 196.654 67.0973 196.536 67.1329C196.418 67.1686 196.319 67.2497 196.26 67.3584V67.3584ZM208.5 68.9584C209.073 68.8257 209.614 68.5806 210.091 68.2372C210.568 67.8939 210.972 67.4592 211.28 66.9584C211.329 66.8783 211.347 66.7828 211.33 66.6902C211.313 66.5977 211.262 66.5148 211.188 66.4576C211.113 66.4003 211.02 66.3728 210.926 66.3804C210.832 66.3879 210.745 66.43 210.68 66.4984C209.3 67.6184 208.46 69.6184 205.36 67.3984C205.14 67.2384 204.86 67.5984 205.06 67.7584C205.518 68.1882 206.06 68.5172 206.653 68.7239C207.245 68.9306 207.875 69.0105 208.5 68.9584V68.9584ZM192 62.3984C192.497 61.8844 193.09 61.4732 193.745 61.1884C194.4 60.9035 195.106 60.7506 195.82 60.7384C196.28 60.7384 196.26 59.8384 195.7 59.8584C194.896 59.8428 194.099 60.0156 193.373 60.3628C192.647 60.7101 192.013 61.2222 191.52 61.8584C191.2 62.2384 191.7 62.7184 192 62.3984V62.3984ZM78.0002 137.658C72.2602 137.258 65.7602 143.158 66.0002 149.658C59.8002 143.998 51.4002 145.998 49.0402 151.998C45.0402 162.238 59.7602 166.938 61.9202 167.678L77.6002 173.118C77.6779 173.143 77.7619 173.141 77.8382 173.112C77.9145 173.083 77.9787 173.029 78.0202 172.958C79.4802 169.718 81.6202 162.958 81.6402 162.838C84.7602 156.838 88.6602 148.978 85.0002 142.398C84.3236 141.085 83.3281 139.963 82.1051 139.135C80.882 138.307 79.4705 137.799 78.0002 137.658ZM85.1202 152.218C84.0305 155.774 82.6457 159.233 80.9802 162.558C80.9802 162.558 78.8002 169.158 77.4202 172.278L58.7402 165.778C57.9202 165.498 48.4802 160.538 49.1602 154.118C49.4237 152.527 50.1444 151.046 51.2346 149.856C52.3247 148.666 53.7373 147.82 55.3002 147.418C57.2621 146.993 59.3022 147.1 61.2085 147.73C63.1148 148.359 64.8177 149.488 66.1402 150.998C66.4402 151.338 66.9002 150.998 66.8402 150.598C65.9602 144.758 71.6402 138.478 77.4802 138.478C82.5202 138.478 87.1602 143.818 85.2002 152.218H85.1202ZM28.0002 90.8384C28.2002 90.8384 59.3002 92.4784 67.6402 92.6384C74.3802 92.7584 81.1602 92.6384 87.8802 92.2984C88.0202 92.2984 99.6602 91.6984 102.8 86.9984C107.98 79.2584 96.3402 73.9184 87.1802 78.3984C87.2964 76.8298 87.0294 75.2565 86.4023 73.814C85.7751 72.3716 84.8066 71.1033 83.5802 70.1184C81.5691 68.6405 79.0538 68.021 76.5864 68.396C74.1191 68.771 71.9013 70.1098 70.4202 72.1184C64.5202 57.4584 38.4202 57.0984 33.6402 71.5584C33.0711 73.1714 32.8534 74.8874 33.0018 76.5914C33.1501 78.2954 33.661 79.948 34.5002 81.4384C31.3669 81.5859 28.3353 82.5965 25.7402 84.3584C25.1184 85.0926 24.769 86.0187 24.7508 86.9806C24.7325 87.9425 25.0467 88.8812 25.6402 89.6384C25.9242 89.9962 26.2821 90.2886 26.6893 90.4957C27.0966 90.7028 27.5437 90.8197 28.0002 90.8384V90.8384ZM26.0002 85.6784C26.0002 85.1784 26.6202 84.9184 27.0402 84.6584C28.2002 83.9584 33.5602 82.1384 35.3602 82.5384C36.0202 82.6784 36.4802 82.3184 36.0802 81.8184C35.1334 80.522 34.4922 79.0281 34.2048 77.4487C33.9173 75.8693 33.9909 74.2453 34.4202 72.6984C38.1402 57.8384 64.9402 58.4584 69.9402 73.2184C69.9672 73.3053 70.0184 73.3827 70.0878 73.4417C70.1572 73.5006 70.242 73.5385 70.3321 73.5511C70.4223 73.5637 70.5141 73.5503 70.597 73.5127C70.6799 73.475 70.7503 73.4146 70.8002 73.3384C71.7737 71.606 73.3312 70.276 75.1947 69.5857C77.0582 68.8954 79.1063 68.8898 80.9735 69.5699C82.8407 70.25 84.4055 71.5715 85.3885 73.2985C86.3715 75.0255 86.7088 77.0457 86.3402 78.9984C86.3157 79.0797 86.3165 79.1666 86.3424 79.2474C86.3683 79.3283 86.4181 79.3994 86.4853 79.4514C86.5524 79.5034 86.6338 79.5338 86.7185 79.5386C86.8033 79.5434 86.8876 79.5225 86.9602 79.4784C94.9602 74.9784 106.68 79.0184 102.44 86.2584C99.6002 91.1384 88.1002 91.4784 87.9602 91.4584C63.7402 91.3384 92.1602 92.6384 30.3402 89.9984C29.2202 89.9984 24.9402 90.4584 25.8202 85.6784H26.0002ZM288.76 50.6784C291.757 51.9768 294.975 52.6896 298.24 52.7784C304.24 53.0784 307.42 52.1184 319.98 51.6784C328.54 51.3784 337.12 51.2184 345.66 50.7384C345.86 50.7384 357.66 50.0184 361.82 46.2384C368.98 39.8384 357.28 31.8784 350.44 36.5584C350.729 34.7304 350.558 32.8594 349.943 31.1138C349.329 29.3681 348.29 27.8027 346.92 26.5584C345.961 25.6617 344.81 24.9958 343.555 24.6116C342.3 24.2274 340.973 24.135 339.677 24.3414C338.38 24.5479 337.148 25.0477 336.074 25.8028C335 26.5579 334.113 27.5483 333.48 28.6984C333.116 26.6093 332.173 24.6642 330.759 23.0839C329.345 21.5036 327.516 20.3515 325.48 19.7584C323.726 19.295 321.887 19.2644 320.118 19.6694C318.35 20.0743 316.707 20.9026 315.33 22.083C313.953 23.2635 312.883 24.7608 312.212 26.4461C311.542 28.1315 311.29 29.9545 311.48 31.7584C305.357 29.986 298.8 30.4904 293.02 33.1784C282 38.3184 284.32 47.9984 288.76 50.6784V50.6784ZM286.14 41.0384C287.76 35.0384 299.58 28.7984 311.74 32.6184C312.04 32.7184 312.26 32.4184 312.22 32.1384C311.999 30.7377 312.066 29.3067 312.417 27.9326C312.767 26.5586 313.394 25.2704 314.259 24.1465C315.123 23.0227 316.208 22.0868 317.446 21.3959C318.685 20.705 320.051 20.2737 321.461 20.1281C322.872 19.9826 324.297 20.1259 325.651 20.5494C327.004 20.9728 328.257 21.6676 329.333 22.5912C330.409 23.5148 331.285 24.6479 331.909 25.9214C332.533 27.1949 332.89 28.5821 332.96 29.9984C332.947 30.0886 332.97 30.1803 333.024 30.2535C333.079 30.3266 333.16 30.3752 333.25 30.3884C333.34 30.4017 333.432 30.3786 333.505 30.3242C333.578 30.2698 333.627 30.1886 333.64 30.0984C333.988 29.0774 334.547 28.1411 335.281 27.3507C336.016 26.5602 336.908 25.9332 337.9 25.5105C338.893 25.0879 339.963 24.879 341.042 24.8976C342.12 24.9162 343.183 25.1618 344.16 25.6184C346.259 26.657 347.94 28.3808 348.925 30.5047C349.911 32.6286 350.142 35.0254 349.58 37.2984C349.565 37.3757 349.575 37.4557 349.608 37.5273C349.641 37.5988 349.695 37.6585 349.763 37.698C349.831 37.7375 349.909 37.7549 349.988 37.7478C350.066 37.7407 350.14 37.7095 350.2 37.6584C355.22 33.1384 364.56 37.8184 363.28 42.8584C362.906 44.0423 362.214 45.1008 361.28 45.9184C357.98 49.1584 345.92 49.7984 345.72 49.7984C339.72 49.8984 314.34 50.9384 313.5 50.9784C306.94 51.4184 299.78 52.6384 293.28 51.2384C290.38 50.6384 288.42 50.0984 286.98 47.4384C285.905 45.4866 285.605 43.2015 286.14 41.0384Z" fill="black"/>
<path d="M380.56 244.64C376.86 244.52 258.46 245.3 257.74 245.32C261.165 229.454 259.347 212.905 252.56 198.16C249.06 190.76 230.56 189.64 242.38 169.6C244.16 166.6 247.18 164.58 249.4 161.92C250.48 160.62 259.4 151.92 250.52 132.7C258.39 123.446 265.735 113.757 272.52 103.68C275.075 100.246 277.173 96.4949 278.76 92.52C280.144 88.9737 280.664 85.1491 280.278 81.3621C279.892 77.575 278.611 73.9341 276.54 70.74C274.295 67.7588 271.756 65.0116 268.96 62.54C263.94 57.78 257.76 53.72 248.34 47.56C248.34 47.56 250.56 41.74 249.84 38.84C249.175 36.3204 247.951 33.9827 246.26 32C245.74 26.86 241.12 22.84 237.66 23.2C237.62 21.9375 237.208 20.715 236.475 19.6865C235.742 18.6579 234.721 17.8693 233.54 17.42C232.836 17.2596 232.104 17.2596 231.4 17.42C230.645 16.1142 229.569 15.0229 228.274 14.2494C226.979 13.4759 225.508 13.0459 224 13C222.155 11.8952 220.08 11.2303 217.937 11.0569C215.793 10.8835 213.639 11.2062 211.64 12C206.7 8.67997 204.08 11.3 200.96 10.52C199.201 9.96628 197.343 9.80468 195.515 10.0466C193.687 10.2884 191.934 10.9279 190.38 11.92C181.22 8.89997 171.1 15.92 167.2 24.1C164.943 25.0871 162.78 26.2787 160.74 27.66C153.36 33.54 153.78 43.66 153.86 45.06C145.98 52.2 151 62.72 151.3 63.36C150.859 65.2764 151.139 67.2881 152.088 69.0109C153.036 70.7338 154.585 72.047 156.44 72.7C156.111 73.335 155.938 74.0393 155.935 74.7546C155.933 75.4699 156.101 76.1754 156.425 76.8128C156.75 77.4502 157.222 78.0011 157.802 78.4197C158.382 78.8383 159.053 79.1127 159.76 79.22C157.88 83.38 160.94 84.66 161.08 84.8C161.724 85.356 162.517 85.7107 163.36 85.82C164.624 87.498 166.2 88.9171 168 90C173.84 94.68 180.6 96.56 186.26 94.66C188.294 93.7593 190.198 92.5888 191.92 91.18C192.5 91.5 194.28 92.32 194.28 92.32V97.54C192.58 98.74 186.14 102.62 184.68 103.4C181.448 102.94 178.162 103.719 175.48 105.58C154 108.5 139.2 114.18 124.94 122.56C119.12 125.98 113.88 128.78 110.7 132.88C105.82 139.18 105.34 147.58 108.06 151.96C115.18 163.5 148.88 175.24 162.36 178.92C162.115 180.269 161.585 181.55 160.806 182.678C160.026 183.805 159.015 184.754 157.84 185.46C156.3 186.48 153.98 187.12 155 190.2C131.88 207.6 139.64 240.9 140.5 244.7C137.22 244.7 20.5001 247.14 19.6601 247.14C19.5766 247.16 19.5022 247.207 19.449 247.274C19.3957 247.341 19.3667 247.424 19.3667 247.51C19.3667 247.596 19.3957 247.679 19.449 247.746C19.5022 247.813 19.5766 247.86 19.6601 247.88C27.3001 247.88 140.1 245.4 140.66 245.38C143.276 256.553 148.33 267.009 155.46 276C154.28 278.64 150.56 277.22 149.46 277.84C144.48 283.16 139.62 280.54 138.78 280.1C137.94 279.66 137.3 279.7 136.9 280.38C132.42 287.58 124.14 286.62 123.28 286.82C122.482 287.115 121.787 287.636 121.28 288.32C117.28 292.7 109.8 291.98 108.92 291.96C108.532 291.916 108.141 292.01 107.815 292.226C107.49 292.442 107.251 292.765 107.14 293.14C106.425 294.714 105.35 296.099 104.002 297.183C102.654 298.266 101.071 299.019 99.3801 299.38C99.0227 299.367 98.671 299.472 98.3785 299.678C98.0861 299.884 97.8689 300.179 97.7601 300.52C98.5401 304.98 94.7801 308.18 93.2001 309.02C92.5201 309.36 91.7201 309.82 91.8401 310.6C92.5201 315.2 88.2001 317.82 86.3001 319.96C85.9663 320.646 85.7887 321.397 85.7801 322.16C86.2531 324.031 86.1743 326 85.5532 327.828C84.9321 329.655 83.7954 331.264 82.2801 332.46C82.191 332.514 82.1266 332.601 82.1004 332.702C82.0743 332.802 82.0885 332.909 82.1401 333C84.9601 337.76 84.9201 342.82 83.6801 344.52C83.6417 344.563 83.6165 344.616 83.6074 344.673C83.5984 344.73 83.6059 344.788 83.6291 344.841C83.6523 344.894 83.6902 344.938 83.7382 344.97C83.7863 345.002 83.8425 345.019 83.9001 345.02C93.7801 353.14 92.2801 359.24 96.2001 363.66C99.3227 366.681 103.255 368.731 107.52 369.56C164.82 395.08 261.92 397.56 319.24 372.3C320.68 371.66 332.34 367.58 335.7 364.92C337.44 363.52 343.52 355.16 346.12 354.52C346.205 354.492 346.277 354.434 346.321 354.356C346.366 354.279 346.379 354.187 346.36 354.1C346.053 352.093 346.335 350.039 347.173 348.189C348.011 346.339 349.368 344.773 351.08 343.68C351.9 343.12 351.78 342.36 351.24 341.68C350.222 340.4 349.593 338.853 349.43 337.225C349.267 335.597 349.576 333.957 350.32 332.5C350.349 332.443 350.366 332.38 350.368 332.316C350.37 332.252 350.359 332.189 350.334 332.13C350.309 332.071 350.272 332.018 350.225 331.975C350.177 331.931 350.121 331.899 350.06 331.88C348.302 331.192 346.819 329.943 345.843 328.326C344.867 326.71 344.451 324.817 344.66 322.94C344.66 322.829 344.616 322.722 344.537 322.643C344.458 322.564 344.351 322.52 344.24 322.52C339.62 322.12 334.4 317.04 334.92 312.16C334.92 312.062 334.89 311.967 334.832 311.888C334.775 311.808 334.693 311.75 334.6 311.72C331.93 310.987 329.522 309.512 327.657 307.466C325.791 305.42 324.544 302.886 324.06 300.16C323.94 299.54 323.18 299.62 322.6 299.68C319.393 299.922 316.186 299.206 313.386 297.621C310.587 296.036 308.323 293.655 306.88 290.78C306.825 290.697 306.745 290.633 306.652 290.597C306.559 290.561 306.457 290.555 306.36 290.58C304.348 291.162 302.203 291.087 300.236 290.368C298.269 289.649 296.582 288.322 295.42 286.58C294.28 285.56 292.94 286.58 291.68 286.8C284.74 288.34 280.62 283.2 280 282.8C279.357 282.55 278.643 282.55 278 282.8C274 283.82 268.56 281.5 266 279.12C265.952 279.063 265.889 279.021 265.818 279C265.747 278.979 265.671 278.979 265.6 279C259.74 281.3 250.74 276.54 246.8 271.74C248.08 269.5 255.3 257.16 257.56 246.14C265.12 246.14 379.66 245.38 380.58 245.32C380.94 245.2 380.96 244.64 380.56 244.64V244.64ZM226.22 37.48C227.58 34.42 230.22 34.08 230.92 32.2C231.234 30.814 231.268 29.3793 231.02 27.98C231.36 27.42 231.82 27.2 232.06 27.78C232.578 29.6125 232.78 31.5196 232.66 33.42C232.678 33.4888 232.718 33.5498 232.774 33.5934C232.83 33.637 232.899 33.6606 232.97 33.6606C233.041 33.6606 233.11 33.637 233.166 33.5934C233.222 33.5498 233.262 33.4888 233.28 33.42C233.39 32.0312 233.33 30.6341 233.1 29.26C233.36 28.98 233.86 28.6 234.14 28.88C234.275 29.0745 234.351 29.3035 234.36 29.54C234.654 31.1198 234.654 32.7402 234.36 34.32C234.36 34.62 234.8 34.66 234.88 34.32C235.212 33.1222 235.28 31.8667 235.08 30.64C235.24 30.36 235.82 30.24 235.94 30.52C237 32.78 235.28 36.52 234.88 37.44C234.48 38.36 234.18 38.86 234.58 39.6C234.58 39.6 262.98 58.66 265.78 61.06C275.58 69.44 281.78 76.82 278.5 89.6C277.338 93.6568 275.492 97.4852 273.04 100.92C270.64 104.52 255.38 125.1 250.04 131.68C245.937 121.179 239.884 111.55 232.2 103.3C236.2 100.98 246.42 96.68 253.82 89.18C256.32 86.66 256.16 84.92 254.34 82.5C249.3 75.86 236.34 61.8 228.64 44.76C228.62 44.52 224.7 40.92 226.22 37.48V37.48ZM230.1 92.62C231.5 92.02 232.9 91.42 234.28 90.76C236.28 90.16 243.44 87.32 245.44 80.42C246.063 78.1833 246.26 75.8494 246.02 73.54C254.32 84.22 256.2 84.68 254.2 87.54C250.8 92.42 238.44 99.04 231.74 103.02C230.826 102.619 229.838 102.412 228.84 102.412C227.842 102.412 226.854 102.619 225.94 103.02C224.32 102.5 222.66 102.02 221.08 101.4C219.748 100.287 218.642 98.9289 217.82 97.4C220.107 97.7529 222.446 97.4969 224.601 96.6577C226.757 95.8185 228.654 94.4258 230.1 92.62ZM196.22 96.62C196.5 96.4 196.22 95.88 195.82 96.1L194.78 96.86V92.3C196.079 92.7323 197.42 93.0273 198.78 93.18C199.08 93.18 199.16 92.72 198.78 92.66C194.94 92.12 185.54 89.58 184.44 76.44C184.039 76.2108 183.598 76.0614 183.14 76C182.13 75.8442 181.209 75.3321 180.544 74.5562C179.878 73.7804 179.512 72.7921 179.512 71.77C179.512 70.7479 179.878 69.7596 180.544 68.9837C181.209 68.2079 182.13 67.6957 183.14 67.54C183.062 64.6007 183.398 61.6651 184.14 58.82C185.01 56.8848 186.394 55.2248 188.14 54.02C191.137 52.0784 194.578 50.9292 198.14 50.68C206.78 65.36 218.9 66.38 220.14 66.46C218.96 67.92 220.04 68.3 220.04 68.34C220.785 68.461 221.485 68.7741 222.072 69.2483C222.658 69.7225 223.111 70.3414 223.386 71.044C223.66 71.7466 223.747 72.5086 223.637 73.2549C223.528 74.0013 223.225 74.7061 222.76 75.3C221.72 76.6 220 75.3 218.86 76.28C218.812 76.3263 218.777 76.3846 218.758 76.449C218.739 76.5133 218.738 76.5814 218.754 76.6464C218.771 76.7113 218.804 76.7709 218.85 76.8189C218.897 76.8669 218.956 76.9018 219.02 76.92C220.74 87.68 213.68 90.14 212.52 90.48C212.26 90.48 212.38 90.94 212.64 90.88C213.326 90.7224 213.995 90.5014 214.64 90.22C213.92 93.22 214.22 96.22 217.26 97.2C218.087 98.9714 219.202 100.593 220.56 102C222.222 102.791 223.94 103.459 225.7 104C229.84 126.32 222.9 130.64 222.38 131.04C214.24 137.76 204.18 132.42 203.06 131.86C201.06 130.34 192.02 123.86 185.38 103.86C186.66 103.18 195.7 97.12 196.22 96.72V96.62ZM159.46 185.04C160.397 184.255 161.169 183.293 161.732 182.208C162.295 181.123 162.637 179.938 162.74 178.72C162.767 178.643 162.763 178.559 162.729 178.484C162.696 178.41 162.635 178.351 162.56 178.32C149.7 174.32 117.7 163.12 109.4 152.56C105.82 148 106.8 141.34 109.28 136.4C110.577 133.9 112.407 131.716 114.64 130C121.767 125.134 129.241 120.796 137 117.02C149.197 111.672 162.049 107.967 175.22 106C180.36 117.82 179.56 132.26 179.22 135.38C177.9 144.96 172.7 143.22 168.24 141.38C169.34 141.04 170.42 140.66 171.5 140.26C171.8 140.14 171.68 139.68 171.36 139.78C151.94 146.24 138.84 143.66 138.78 143.78C137.449 142.978 136.042 142.308 134.58 141.78C134.3 141.78 134.18 142.14 134.46 142.24C137.179 143.298 139.67 144.866 141.8 146.86C144.04 148.86 169.52 173.24 171 174.44C171 174.44 171.24 174.6 171.38 174.56C173 174.1 176.64 173.04 178.54 175.66C178.54 175.66 163.02 183.06 155.56 189.66C155.02 186.88 157.28 187.02 159.46 185.04V185.04ZM172.84 153.04C171.1 166.18 173.68 173.34 173.7 173.42C172.896 173.533 172.105 173.727 171.34 174C170.26 172.76 144.98 148.54 142.58 146.62C141.76 145.96 140.9 145.34 140.02 144.74C149.04 145.59 158.139 144.659 166.8 142C167.025 144.137 167.676 146.208 168.713 148.09C169.75 149.972 171.154 151.628 172.84 152.96V153.04ZM148 262.82C145.06 257.28 140.48 245.3 139.84 236.82C139.12 227.5 139.3 217.94 142.58 209.12C144.884 202.439 148.807 196.433 154 191.64C154.88 199.64 159.04 206.72 164 212.9C166.74 216.34 195.2 243.18 195.4 243.1C195.6 243.02 193.4 283.76 193.4 288.34C193.072 296.644 194.978 304.884 198.92 312.2C201.397 316.838 204.114 321.345 207.06 325.7C208.6 343.4 203.62 358.18 203.62 360.28C200.74 362.28 197.92 364.52 195.06 366.6C186 347.5 175.28 325.76 180.58 302.8C180.58 302.8 182.58 304.14 183.58 304.66C184 304.88 184.36 304.24 183.94 304.02C180.231 301.501 176.781 298.62 173.64 295.42C170.52 292.28 167.64 288.9 164.74 285.54C158.342 278.605 152.728 270.986 148 262.82V262.82ZM207.66 326.7C209.08 328.7 225.66 353.1 226.16 353.72C217.72 351.92 210.84 355.24 204.3 359.72C205.5 355.46 209.58 340.16 207.68 326.7H207.66ZM94.3801 358.7C93.0426 354.42 90.6968 350.524 87.5401 347.34C89.3801 348.52 111.44 362.3 135.86 363.14C135.914 363.124 135.962 363.092 135.996 363.047C136.03 363.001 136.049 362.946 136.049 362.89C136.049 362.833 136.03 362.779 135.996 362.733C135.962 362.688 135.914 362.656 135.86 362.64C117.504 361.101 99.8679 354.793 84.7001 344.34C86.1401 341.8 85.2601 337.36 83.9801 334.6C85.2201 335.64 104.7 349 136.64 356.9C136.701 356.919 136.767 356.912 136.823 356.882C136.879 356.852 136.922 356.801 136.94 356.74C136.959 356.679 136.952 356.613 136.922 356.557C136.892 356.501 136.841 356.459 136.78 356.44C127.34 353.86 101 345.9 83.3601 332.76C86.2201 330.92 87.7001 326.02 86.6601 321.9C100.419 334.241 116.142 344.198 133.18 351.36C133.46 351.48 133.72 351.06 133.42 350.94C104.3 337.8 89.8001 323.32 86.7801 320.78C87.7201 319.06 92.7801 316.78 92.7801 312.06C92.759 311.714 92.759 311.366 92.7801 311.02C107.855 327.224 124.693 341.694 142.98 354.16C143.26 354.34 143.54 353.88 143.24 353.7C135.92 349.02 110.98 329.06 93.0601 310.18C93.998 309.463 94.9727 308.795 95.9801 308.18C97.0246 307.423 97.8366 306.388 98.3243 305.194C98.812 303.999 98.956 302.692 98.7401 301.42C102.06 307.42 113.12 325.14 135.86 341.42C136.08 341.58 136.28 341.22 136.08 341.06C124.44 332.32 107.74 316.5 99.2001 300.32C99.6001 300.18 106.28 299.04 108.34 293.14C123.06 324.5 143.46 339.68 147.78 343.02C148 343.18 148.32 342.86 148.1 342.68C131.745 328.996 118.474 312.003 109.16 292.82C109.54 292.82 118.4 293.8 123.16 288.12C132.612 316.501 150.512 341.315 174.46 359.24C174.7 359.42 174.92 359.04 174.7 358.86C138 330.6 125.62 291.6 124 288.22C124 288.08 134.5 287.54 138 280.9C139.14 283.96 140 287.1 141.12 290.18C149.24 314.18 159.8 334.86 179.28 352.04C179.48 352.22 179.8 351.94 179.58 351.74C161.36 335.22 150.5 313.86 142.5 291.28C141.28 287.86 140.08 284.44 138.8 281.04C140.641 281.87 142.699 282.091 144.674 281.67C146.649 281.249 148.438 280.209 149.78 278.7C158.68 307.06 174.64 330.7 176.88 334.7C176.912 334.756 176.965 334.796 177.026 334.813C177.088 334.83 177.154 334.822 177.21 334.79C177.266 334.758 177.307 334.706 177.323 334.644C177.34 334.582 177.332 334.516 177.3 334.46C173.3 327.32 157.84 303.1 150.54 278.32C151.24 278.16 155.04 278.76 156.06 276.54C157.82 278.82 170.9 295.7 180.06 302.3C174.44 324.58 184.18 346.76 194.4 367.06C187.7 371.84 180.72 375.7 172.54 374.18C163.7 372.52 156.16 365.58 147.32 363.5C135.94 360.84 127.96 368.74 117.12 369.5C108.5 370 97.4201 366.74 94.4001 358.74L94.3801 358.7ZM110.26 370.06C123.08 372.06 129.64 365.76 139 364.2C153.62 361.76 163.98 377.4 178.54 375.38C194.54 373.18 204.82 355.02 220.36 354.16C235.9 353.3 248.22 372.16 263.8 371.08C274.28 370.38 283.36 357.44 295.42 359.58C300.94 360.54 304.2 365.58 309.02 367.94C313.21 370.039 317.943 370.8 322.58 370.12C265.08 396.46 168.6 394 110.28 370.1L110.26 370.06ZM264.96 280C256.777 295.137 251.794 311.796 250.32 328.94C250.32 329.24 250.76 329.22 250.78 328.94C252.02 315.42 259.4 289.76 265.76 279.92C267.442 281.624 269.549 282.849 271.862 283.468C274.175 284.087 276.612 284.077 278.92 283.44C267.6 301.76 255.26 340.26 253.92 343.44C253.92 343.68 254.18 343.9 254.3 343.66C255.42 341.04 270.64 297.98 279.72 283.66C285.72 290.22 291.72 287.66 292.34 287.5C292.96 287.34 294.18 286.58 294.94 287.22C296.007 288.851 297.509 290.152 299.276 290.976C301.043 291.799 303.005 292.112 304.94 291.88C288.94 306.7 260.2 350.5 260 350.78C259.8 351.06 260.28 351.34 260.48 351.06C288.48 309.28 306.26 291.74 306.36 291.66C307.859 294.575 310.189 296.98 313.055 298.571C315.92 300.162 319.193 300.868 322.46 300.6C305.113 312.705 289.773 327.458 277 344.32C276.82 344.58 277.14 344.9 277.34 344.66C302.72 314.14 322.32 301.8 323.34 300.76C323.956 303.26 325.152 305.579 326.83 307.532C328.508 309.484 330.621 311.015 333 312C297 330.32 280.36 352.28 277 356.32C276.82 356.54 277.14 356.86 277.34 356.64C293.168 338.384 312.417 323.402 334 312.54C333.78 317.4 338.34 322.04 343 323.1C326.881 329.596 311.379 337.528 296.68 346.8C296.634 346.831 296.601 346.879 296.588 346.933C296.575 346.988 296.584 347.045 296.612 347.093C296.64 347.141 296.685 347.177 296.739 347.194C296.792 347.21 296.85 347.205 296.9 347.18C311.98 338.23 327.641 330.299 343.78 323.44C343.722 325.216 344.164 326.973 345.055 328.511C345.946 330.049 347.25 331.306 348.82 332.14C329.48 335.38 295.9 352.44 289.48 355.9C289.18 356.06 289.48 356.54 289.76 356.38C300.08 350.94 324.38 339.18 349.28 332.78C346.64 337.16 350.86 342.42 350.86 342.46C340.48 345.02 305.58 358.46 303.76 359.22C303.42 359.36 303.56 359.92 303.92 359.78C308.48 357.96 337.76 347.3 350.26 343.36C346.26 346.62 345.04 350.12 345.66 353.92C340.22 355.92 336.88 364.68 328.08 367.64C323.151 369.539 317.737 369.778 312.66 368.32C305.96 366.2 304.04 362.32 299.62 359.96C297.32 358.893 294.815 358.34 292.28 358.34C289.745 358.34 287.24 358.893 284.94 359.96C279.7 362.1 275.2 365.64 270.12 368.12C259.08 373.52 249.64 366.12 239.32 359.6C239.32 343.08 236.62 326.68 233.54 310.48C230.64 295.22 230.64 297.48 231.02 296.92C234.68 291.52 244.78 274.92 246.34 272.34C253.32 280.16 261.74 280.88 264.96 280V280ZM256.58 246C253.74 257.7 247.84 268.24 241.56 278.4C237.8 284.4 229.92 297.08 229.94 297.18C234.473 317.632 237.389 338.41 238.66 359.32C235.1 356.961 231.192 355.173 227.08 354.02C205.08 320.2 194.8 309.86 194.34 291.68C194.22 287.18 196.12 245.68 196.02 243.08C197.28 241.8 216.88 221.72 257.22 216.44C259.177 226.221 258.959 236.313 256.58 246V246Z" fill="black"/>
</svg>
