<svg width="381" height="375" viewBox="0 0 381 375" fill="none" xmlns="http://www.w3.org/2000/svg">
<path d="M86.1811 46.7369C86.124 47.6909 85.8263 48.6149 85.3157 49.4227C84.8051 50.2306 84.0983 50.896 83.2611 51.3569C83.972 52.5616 84.3078 53.9507 84.2259 55.347C84.144 56.7434 83.648 58.0837 82.8011 59.1969C81.9724 60.2827 80.8663 61.1251 79.5993 61.6354C78.3322 62.1458 76.9511 62.3052 75.6011 62.0969C75.2411 63.0769 74.3811 64.7769 73.4011 65.0969C73.2498 65.1758 73.0817 65.217 72.9111 65.217C72.7405 65.217 72.5724 65.1758 72.4211 65.0969C72.6586 66.5008 73.3209 67.798 74.3187 68.8137C75.3164 69.8293 76.6017 70.5146 78.0011 70.7769C82.5811 71.5969 86.8611 70.0969 86.8611 65.4369C87.9572 65.6581 89.0882 65.6385 90.176 65.3795C91.2638 65.1205 92.2823 64.6283 93.1611 63.9369C93.787 63.424 94.3054 62.7925 94.6864 62.0785C95.0674 61.3646 95.3035 60.5824 95.3811 59.7769C95.5811 54.6169 92.0011 51.1969 89.7811 51.1969C91.4011 48.3369 90.3611 45.8569 87.7811 43.9769C87.1235 43.5689 86.3877 43.3032 85.6211 43.1969C86.0346 44.3297 86.2247 45.5318 86.1811 46.7369V46.7369ZM46.2011 48.2169C46.2913 48.2169 46.3778 48.1811 46.4415 48.1173C46.5053 48.0536 46.5411 47.9671 46.5411 47.8769C46.5411 47.7868 46.5053 47.7003 46.4415 47.6365C46.3778 47.5728 46.2913 47.5369 46.2011 47.5369L44.9811 47.3969C44.6011 47.3969 43.9811 47.3969 43.6211 47.2769C43.3883 44.3415 43.3883 41.3923 43.6211 38.4569C43.6171 38.3733 43.5841 38.2937 43.5278 38.2318C43.4715 38.1699 43.3953 38.1295 43.3124 38.1177C43.2296 38.1059 43.1452 38.1233 43.0737 38.1669C43.0023 38.2106 42.9483 38.2778 42.9211 38.3569C42.0515 40.5837 41.6629 42.9693 41.7811 45.3569C41.7498 46.1829 41.8237 47.0096 42.0011 47.8169C42.4811 49.0769 44.9011 48.5169 46.2011 48.2169ZM36.9211 36.5569C35.9611 36.8169 34.6611 37.7569 35.1411 38.1169C35.8463 38.4406 36.6499 38.4765 37.3811 38.2169C38.0811 38.0369 39.2411 37.3369 39.2211 36.9769C39.2011 36.6169 37.8611 36.2969 36.9211 36.5569V36.5569ZM49.8811 37.9569C56.9211 39.4169 53.6611 36.7369 50.2011 36.2969C49.3011 36.1769 47.2011 36.2969 47.2411 36.7969C47.2811 37.2969 49.3411 37.8369 49.8811 37.9569ZM51.4611 41.3169C51.4051 41.218 51.33 41.1312 51.2402 41.0614C51.1504 40.9917 51.0476 40.9405 50.9379 40.9107C50.8281 40.881 50.7136 40.8733 50.6009 40.8881C50.4881 40.9029 50.3794 40.9399 50.2811 40.9969C49.7811 41.2769 49.8011 41.5769 49.9211 43.1969C49.937 43.425 50.0429 43.6374 50.2154 43.7875C50.388 43.9375 50.613 44.0128 50.8411 43.9969C51.0692 43.981 51.2816 43.8751 51.4317 43.7026C51.5817 43.5301 51.657 43.305 51.6411 43.0769C51.6712 42.4845 51.6104 41.891 51.4611 41.3169V41.3169ZM37.3011 42.4169C37.3197 42.1888 37.2469 41.9627 37.0987 41.7883C36.9506 41.6139 36.7392 41.5055 36.5111 41.4869C36.283 41.4684 36.0569 41.5412 35.8825 41.6893C35.7081 41.8375 35.5997 42.0488 35.5811 42.2769C35.5432 42.7629 35.5432 43.251 35.5811 43.7369C35.597 43.965 35.7029 44.1774 35.8754 44.3275C36.048 44.4775 36.273 44.5528 36.5011 44.5369C36.7292 44.521 36.9416 44.4151 37.0917 44.2426C37.2417 44.0701 37.317 43.845 37.3011 43.6169C37.3411 43.1969 37.2811 42.6569 37.3011 42.4169ZM44.2411 55.4369C44.2411 56.0769 46.7811 56.2369 48.1011 54.9169C49.0811 53.9369 49.0211 52.4369 48.6211 52.3369C48.2211 52.2369 48.4811 52.3369 47.0411 53.5769C46.1411 54.3369 44.2011 54.9369 44.2411 55.4369V55.4369Z" fill="black"/>
<path d="M379.161 38.8156C378.638 38.6467 378.085 38.5932 377.539 38.6589C376.994 38.7245 376.469 38.9076 376.001 39.1956C376.383 38.2799 376.515 37.2789 376.381 36.2956C376.021 34.6756 373.661 33.9356 371.721 36.2956C371.601 35.0156 371.021 34.1356 370.001 33.9556C367.461 33.4756 366.361 38.3156 365.801 40.8556C364.481 39.8756 362.321 38.2156 361.241 39.5156C360.936 39.8419 360.73 40.2489 360.648 40.6883C360.567 41.1278 360.613 41.5815 360.781 41.9956C361.559 43.3547 362.666 44.4964 364.001 45.3156C363.621 46.1956 362.001 48.5156 361.161 49.8756C360.481 49.6756 359.041 49.2956 358.741 49.8756C351.721 59.4356 332.741 81.5956 320.921 81.1356C302.661 80.4356 279.681 71.5956 277.381 71.9156L274.161 64.8556C277.703 62.4301 280.363 58.9212 281.741 54.8556C283.984 48.6502 285.003 42.0688 284.741 35.4756C284.756 33.3385 284.656 31.202 284.441 29.0756C292.881 28.5156 298.441 18.5756 291.861 10.3556C291.227 9.37006 290.4 8.52221 289.431 7.86252C288.462 7.20283 287.371 6.74478 286.221 6.51563C284.866 6.44504 283.509 6.62818 282.221 7.05563C274.221 9.05563 274.101 3.99563 268.621 2.63563C266.116 2.21597 263.544 2.48559 261.181 3.41563C253.181 6.21563 254.741 10.6756 251.041 14.3956C249.041 16.3956 240.501 13.5756 237.041 19.2556C233.361 25.4756 233.701 38.6356 239.041 43.7956C240.227 44.8612 241.537 45.781 242.941 46.5356C244.237 47.8603 245.753 48.9498 247.421 49.7556C248.981 52.9356 250.761 62.0756 251.421 65.5356L250.801 70.7356C246.536 71.406 242.33 72.4091 238.221 73.7356C231.489 75.9147 224.958 78.6716 218.701 81.9756C207.301 87.9756 208.701 87.8556 208.301 87.2156C206.919 85.7111 205.45 84.2886 203.901 82.9556C192.981 73.7556 181.141 65.9156 167.161 63.6156L165.521 54.3156C169.921 50.7156 172.321 43.4556 172.401 38.3156C174.041 38.9956 175.341 37.7956 176.201 36.3156C176.441 35.8756 177.941 36.3156 179.101 33.7156C179.302 33.1736 179.302 32.5777 179.101 32.0356C179.502 31.796 179.846 31.4715 180.108 31.0848C180.371 30.6982 180.545 30.2588 180.62 29.7975C180.694 29.3362 180.666 28.8642 180.539 28.4147C180.411 27.9652 180.187 27.5491 179.881 27.1956C180.497 26.8453 181.025 26.3585 181.423 25.7726C181.822 25.1867 182.081 24.5173 182.181 23.8156C182.621 21.1956 182.021 18.8356 179.501 18.0156C179.501 17.4356 179.921 16.4756 179.921 16.2756C179.943 15.3443 179.777 14.4181 179.434 13.5522C179.09 12.6863 178.576 11.8985 177.921 11.2356C175.141 8.85563 174.261 9.05563 172.521 9.23563C172.521 8.03563 173.281 7.23563 172.021 5.59563C171.055 4.48066 169.768 3.69049 168.337 3.33263C166.905 2.97477 165.399 3.0666 164.021 3.59563L163.521 3.75563C163.209 2.96967 162.733 2.25866 162.127 1.66926C161.52 1.07986 160.796 0.625376 160.001 0.335628C157.501 -0.604372 155.781 0.615628 153.681 1.71563C150.541 -1.08437 144.541 0.415627 141.321 2.35563C139.861 3.23563 139.721 4.79563 139.141 5.51563C137.898 5.42504 136.661 5.74854 135.621 6.43563C134.701 7.01563 133.841 7.85563 133.101 8.43563C132.614 8.81395 132.211 9.29104 131.921 9.83563C131.302 10.8524 130.945 12.0069 130.881 13.1956C130.39 13.3134 129.923 13.5164 129.501 13.7956C127.903 15.2261 126.78 17.11 126.281 19.1956C126.063 20.3496 126.174 21.5417 126.601 22.6356C126.601 22.7556 126.801 22.9956 126.861 23.1156C126.461 23.6956 125.421 24.1556 125.221 25.7156C125.021 27.2756 125.081 30.3356 126.601 31.2556C127.241 31.6356 128.601 32.0356 129.081 32.3356C129.005 33.1539 129.005 33.9774 129.081 34.7956C129.601 38.1756 132.941 39.3956 136.381 38.8956L137.321 39.3756C137.687 42.9387 138.632 46.418 140.121 49.6756C141.231 51.8275 142.904 53.6383 144.961 54.9156L144.001 63.4356C139.228 64.1331 134.537 65.3125 130.001 66.9556C116.261 71.9756 108.241 78.4956 101.141 89.8156C91.3611 81.7156 74.8011 69.5756 62.0011 69.7956C62.0833 68.9309 62.0833 68.0603 62.0011 67.1956C62.0011 66.6156 61.6811 64.8356 61.1411 64.5756C61.1411 63.5956 60.9811 62.5756 60.9011 61.6356C65.4211 68.3156 74.6411 64.7756 73.6211 60.2156C74.7619 60.2912 75.9039 60.0886 76.949 59.6252C77.9942 59.1619 78.9111 58.4517 79.6211 57.5556C80.3104 56.5708 80.6801 55.3977 80.6801 54.1956C80.6801 52.9935 80.3104 51.8205 79.6211 50.8356C79.4555 50.5689 79.2536 50.3266 79.0211 50.1156C82.1411 49.3156 83.2211 47.9356 83.6211 45.9556C83.9431 44.4408 83.8251 42.8656 83.2811 41.4156C83.6371 41.2398 83.9724 41.0252 84.2811 40.7756C85.1979 39.8996 85.8198 38.7605 86.0611 37.5156C86.5387 33.1818 85.5984 28.8099 83.3811 25.0556C82.6626 23.8038 81.487 22.879 80.1011 22.4756C79.8409 21.285 79.687 20.0735 79.6411 18.8556C79.3111 16.9645 78.5323 15.1802 77.3699 13.6525C76.2076 12.1247 74.6957 10.8981 72.9611 10.0756C71.2805 9.28766 69.4564 8.85205 67.6011 8.79563C66.8219 8.73099 66.0378 8.83326 65.3011 9.09563C64.0261 7.55332 62.3519 6.39101 60.4611 5.73563C56.7919 5.05412 52.9999 5.6767 49.7411 7.49563C49.0811 7.93563 48.5611 8.79563 47.9811 9.21563C46.5572 8.60415 45.0135 8.32252 43.4653 8.39178C41.9172 8.46105 40.4048 8.87943 39.0411 9.61563C37.5935 10.2499 36.2892 11.1705 35.2065 12.3219C34.1238 13.4733 33.2852 14.8318 32.7411 16.3156C31.9011 18.3156 31.1411 21.5956 32.4211 23.3156C32.4947 23.4109 32.5615 23.5111 32.6211 23.6156C31.8611 24.9556 30.1211 25.6156 29.5411 29.3356C29.3049 31.2016 29.3792 33.0939 29.7611 34.9356C29.8675 35.3893 30.1218 35.7947 30.4839 36.0879C30.8459 36.3812 31.2953 36.5458 31.7611 36.5556C31.1411 42.5556 31.2411 50.5556 34.5211 55.7356C35.3377 56.9473 36.2906 58.0612 37.3611 59.0556C38.4795 60.1513 39.8548 60.949 41.3611 61.3756V64.9356C40.3611 65.4956 41.0611 68.6756 40.6411 70.5956C32.5211 70.0356 21.1611 71.9156 14.8611 77.1156C5.14114 85.1956 1.18114 96.5956 0.141138 109.196C-1.27886 126.576 8.14114 137.336 22.7611 139.196C23.6796 142.238 24.7612 145.229 26.0011 148.156C19.8236 159.739 15.306 172.134 12.5811 184.976C10.5811 195.856 9.64114 213.096 9.46114 229.636C9.46114 237.516 9.46114 267.076 12.1011 274.436C12.5211 275.596 14.3211 276.216 15.5011 276.556C18.7826 277.415 22.1261 278.017 25.5011 278.356C26.3411 295.916 28.8411 362.776 28.8411 362.876C25.4047 364.715 22.241 367.024 19.4411 369.736C18.9963 370.132 18.6626 370.637 18.4732 371.202C18.2838 371.767 18.2451 372.371 18.3611 372.956C18.5672 373.475 18.9537 373.903 19.4497 374.16C19.9458 374.417 20.5179 374.487 21.0611 374.356C24.3811 374.056 33.3211 371.376 37.3611 370.636C37.4611 371.496 37.6011 372.336 38.4411 372.636C39.8811 373.136 42.7211 373.396 43.7611 372.096C44.8011 370.796 44.1811 367.396 44.3211 365.936C44.4411 364.856 53.5611 301.936 56.6811 280.356H59.1811C63.0211 301.136 73.5211 360.556 73.5411 360.656C71.462 362.235 69.491 363.953 67.6411 365.796C66.1011 367.356 63.5211 370.156 64.5411 372.076C65.5611 373.996 67.9611 373.016 69.9811 372.276C73.9811 370.876 79.9811 368.176 83.0411 367.176C83.2611 367.996 83.5211 368.816 84.3811 368.996C85.5745 369.176 86.7919 369.115 87.9611 368.816C89.6611 368.316 89.9611 367.256 89.9611 365.496C89.2211 356.636 89.2011 384.576 89.8011 279.956C92.0188 279.866 94.2162 279.497 96.3411 278.856C102.001 276.076 101.481 194.856 94.1211 169.296C93.6211 167.536 90.4611 158.356 88.2211 152.656C88.2914 152.462 88.2914 152.249 88.2211 152.056C87.5635 150.399 86.8226 148.777 86.0011 147.196C86.6011 139.836 87.2411 125.636 87.8411 121.336L92.8211 124.756C93.2294 126.365 93.8059 127.927 94.5411 129.416C95.3605 131.565 96.6762 133.491 98.3811 135.036C100.535 137.02 103.099 138.508 105.892 139.392C108.684 140.277 111.637 140.538 114.541 140.156H117.901C121.781 163.196 120.661 160.776 121.241 161.356C106.501 212.156 101.741 308.516 103.741 357.356C103.741 357.588 103.819 357.813 103.961 357.996C104.981 359.296 111.341 359.996 113.441 360.356C109.497 362.459 105.742 364.902 102.221 367.656C100.441 369.396 102.781 372.656 104.961 373.216C106.161 373.536 122.481 371.216 123.721 371.036C123.881 371.796 124.241 372.536 125.001 372.676C127.14 373.044 129.311 373.198 131.481 373.136C132.361 373.136 133.481 372.936 133.681 372.096C134.349 368.767 134.737 365.389 134.841 361.996C136.261 361.996 137.681 361.996 138.141 361.596C142.141 357.596 160.001 255.816 161.461 247.596C161.957 244.838 162.085 242.027 161.841 239.236C158.941 204.936 160.021 219.056 159.561 205.836C159.58 205.757 159.625 205.687 159.688 205.637C159.752 205.587 159.83 205.56 159.911 205.56C159.992 205.56 160.07 205.587 160.134 205.637C160.197 205.687 160.242 205.757 160.261 205.836C161.601 221.556 162.401 222.096 163.481 242.816C163.481 244.236 179.781 355.756 182.721 358.676C184.287 359.324 185.967 359.65 187.661 359.636C187.47 363.941 187.813 368.254 188.681 372.476C188.737 372.634 188.824 372.78 188.937 372.903C189.051 373.027 189.188 373.127 189.341 373.196C190.801 373.916 196.261 373.196 197.341 373.056C197.684 372.926 197.985 372.704 198.211 372.415C198.437 372.126 198.579 371.78 198.621 371.416C200.321 371.656 216.201 373.896 217.361 373.596C219.541 373.036 221.901 369.776 220.101 368.016C215.936 364.831 211.506 362.007 206.861 359.576C209.261 359.396 214.301 358.956 216.381 357.736C219.521 355.876 216.521 216.356 191.321 159.136C191.781 158.396 193.541 137.856 193.621 136.936C199.943 136.722 206.068 134.687 211.261 131.076L219.261 128.196C214.39 146.757 210.735 165.618 208.321 184.656C207.861 188.416 205.541 207.096 208.041 209.896C208.299 210.186 208.655 210.371 209.041 210.416C210.181 210.516 214.741 210.916 219.601 211.216C219.601 268.596 225.241 299.396 234.341 359.816C234.37 360.003 234.464 360.174 234.606 360.299C234.749 360.423 234.932 360.493 235.121 360.496H235.641C236.018 363.281 236.627 366.031 237.461 368.716C238.721 371.256 258.261 371.196 261.021 370.316C261.503 370.069 261.885 369.664 262.103 369.168C262.322 368.673 262.363 368.118 262.221 367.596C261.421 364.036 254.221 363.256 250.821 360.696H252.001C252.186 360.7 252.366 360.641 252.512 360.528C252.657 360.415 252.76 360.255 252.801 360.076L268.101 283.496C268.281 284.616 279.041 361.496 279.041 361.496C279.075 361.697 279.181 361.879 279.339 362.008C279.497 362.137 279.697 362.203 279.901 362.196H281.481C281.762 365.014 282.216 367.813 282.841 370.576C282.872 370.702 282.931 370.82 283.014 370.921C283.097 371.021 283.202 371.102 283.321 371.156C285.321 372.096 302.901 373.156 305.801 371.576C306.328 371.29 306.729 370.818 306.925 370.251C307.121 369.685 307.098 369.066 306.861 368.516C306.359 367.123 305.463 365.907 304.281 365.016C301.861 363.676 297.641 363.376 295.381 362.196H296.501C296.692 362.184 296.875 362.112 297.023 361.99C297.17 361.868 297.275 361.701 297.321 361.516C297.321 361.516 303.141 340.136 306.561 290.956C308.561 262.276 309.121 232.956 308.901 204.596C311.461 204.796 315.821 204.996 317.981 204.896C318.581 204.896 319.161 204.896 319.421 204.316C321.741 199.696 319.981 153.776 318.681 142.196C318.561 141.076 315.701 122.056 315.321 119.576C321.981 119.316 331.601 117.896 337.061 113.996C365.061 93.9956 370.401 59.8356 372.681 55.2556C372.901 54.7756 372.361 54.5356 371.021 53.8756C371.79 51.5926 372.706 49.3613 373.761 47.1956C376.541 45.6556 379.761 43.8956 379.981 40.7156C380.088 40.353 380.064 39.9646 379.914 39.6176C379.764 39.2707 379.498 38.987 379.161 38.8156V38.8156ZM179.701 18.3956C179.541 18.3956 179.501 18.2756 179.501 18.0756C179.501 17.8756 179.881 18.3956 179.701 18.3956ZM253.321 94.3956C263.201 95.0156 269.081 95.0956 279.121 95.0356C279.761 98.9156 280.481 103.156 281.261 107.656C275.881 107.656 257.641 107.856 252.901 107.776C253.121 103.376 253.281 98.8756 253.321 94.4356V94.3956ZM250.701 136.256C262.341 136.936 270.981 137.116 286.441 136.796C287.481 142.496 288.561 148.256 289.521 153.316C280.161 153.596 258.561 153.976 248.841 153.696C249.221 150.516 250.001 142.796 250.701 136.296V136.256ZM248.001 160.136C263.241 161.016 275.441 161.056 290.941 160.596C291.701 164.436 292.441 168.156 293.161 171.656C275.481 172.336 258.181 172.376 245.881 172.136C246.694 168.176 247.401 164.176 248.001 160.136ZM285.141 129.596C279.141 129.716 257.141 129.956 251.301 129.876C251.821 124.156 252.221 118.976 252.521 114.276C262.121 114.876 268.641 115.096 282.521 114.936C283.001 117.576 284.761 127.396 285.141 129.596ZM276.541 76.1956C276.781 79.4756 277.501 84.5556 278.001 87.8156C272.901 87.8156 257.301 87.9956 253.301 87.9356C253.261 83.83 252.987 79.7301 252.481 75.6556C257.881 82.9156 272.461 81.9156 276.541 76.1956V76.1956ZM244.541 178.516C261.25 179.524 277.999 179.651 294.721 178.896C295.481 182.416 296.181 185.616 296.841 188.416C293.681 188.236 256.321 186.416 242.721 185.756C243.281 183.476 243.881 181.056 244.481 178.516H244.541ZM248.921 49.0156C248.221 47.6156 243.781 47.0156 243.361 43.4756C242.881 39.3356 247.701 39.1956 249.361 41.0556C249.501 41.1956 250.481 42.5156 250.601 42.6756C251.641 44.0756 252.601 44.1156 252.921 42.1156C253.381 38.3956 252.241 30.9556 256.581 31.7356C259.682 32.7083 262.871 33.3781 266.101 33.7356C272.241 34.2956 277.121 33.7356 281.081 29.3356C281.521 29.2356 282.981 29.1756 283.501 29.1356C283.683 31.2504 283.737 33.3743 283.661 35.4956C283.798 41.9157 282.684 48.301 280.381 54.2956C277.201 61.9156 272.801 63.7556 272.801 63.7556C272.699 63.7946 272.606 63.8536 272.527 63.9292C272.448 64.0047 272.385 64.0953 272.341 64.1956C272.161 64.6556 272.101 64.1956 275.861 72.6156C276.661 79.8756 255.161 82.8356 252.381 71.4356L253.061 65.6156C253.141 65.1956 250.761 52.7556 248.861 49.0156H248.921ZM204.921 85.0156C211.245 91.2945 215.603 99.2799 217.461 107.996C218.641 113.996 218.141 119.036 216.181 122.496C214.897 124.718 213.293 126.74 211.421 128.496C209.459 130.502 207.065 132.034 204.421 132.976C198.869 135.012 192.911 135.698 187.041 134.976C179.234 133.989 171.526 132.336 164.001 130.036C164.001 129.436 163.881 128.796 163.821 128.036L170.721 125.516C172.043 125.148 173.323 124.645 174.541 124.016C175.241 123.656 175.301 122.596 175.381 121.696C175.721 118.416 175.041 118.856 176.041 118.056C178.281 116.296 184.441 114.576 187.121 113.816C188.021 113.576 189.321 113.376 188.921 112.516C188.794 111.287 188.291 110.128 187.481 109.196C183.261 91.3156 183.981 91.3756 183.301 91.4956C183.255 91.4999 183.21 91.5142 183.17 91.5376C183.13 91.5609 183.095 91.5927 183.068 91.6308C183.042 91.6688 183.024 91.7122 183.016 91.758C183.007 91.8037 183.009 91.8507 183.021 91.8956C183.921 97.2156 185.261 104.096 186.221 108.736L183.741 108.376C183.321 108.376 182.901 108.376 182.801 108.176C182.001 106.516 182.341 104.556 180.421 103.596C180.221 103.461 179.995 103.37 179.758 103.328C179.52 103.286 179.277 103.295 179.043 103.354C178.809 103.412 178.59 103.519 178.401 103.667C178.211 103.816 178.054 104.003 177.941 104.216C176.901 106.216 178.161 110.696 177.941 110.636C176.876 111.072 175.761 111.374 174.621 111.536C174.575 111.352 174.493 111.18 174.38 111.029C174.266 110.878 174.124 110.751 173.961 110.656C169.903 108.672 165.681 107.046 161.341 105.796C160.401 97.9156 159.161 87.9956 158.721 84.6756C158.875 84.6043 159.016 84.5098 159.141 84.3956C159.847 83.0035 160.365 81.524 160.681 79.9956C161.021 80.3756 161.301 80.7356 161.921 80.4956C167.347 76.5525 172.474 72.214 177.261 67.5156C187.407 71.7032 196.761 77.5948 204.921 84.9356V85.0156ZM179.601 105.196C181.041 106.016 180.261 108.456 181.881 109.676C183.504 110.152 185.19 110.381 186.881 110.356C187.278 111.015 187.53 111.751 187.621 112.516C186.061 112.996 178.481 114.676 175.321 116.856C175.257 115.346 175.089 113.843 174.821 112.356C176.461 112.216 178.521 112.356 179.121 111.296C179.721 110.236 178.701 104.656 179.601 105.196ZM175.741 67.1956C172.161 70.2956 164.141 76.9356 161.741 78.6956C160.541 77.3556 157.401 73.6356 156.521 72.2756C158.521 70.5556 165.921 65.5556 167.001 64.9556C169.989 65.3105 172.923 66.0222 175.741 67.0756V67.1956ZM144.241 64.8156L154.001 72.3356C152.521 73.9156 148.901 77.0556 147.281 78.6956C145.001 77.0556 138.781 70.4756 135.281 66.8356C138.22 65.9652 141.213 65.2904 144.241 64.8156V64.8156ZM138.801 38.3356C138.521 37.9356 138.481 38.0556 136.441 36.9756C135.101 35.8756 133.481 34.9756 132.881 33.3356C132.881 31.9756 133.301 30.2956 134.721 30.3756C135.795 30.623 136.791 31.1314 137.621 31.8556C138.529 32.1534 139.505 32.1735 140.424 31.9134C141.343 31.6533 142.164 31.1248 142.781 30.3956C143.474 29.1475 143.681 27.687 143.361 26.2956C144.677 26.1779 145.896 25.5541 146.761 24.5556C147.188 23.6924 147.446 22.7556 147.521 21.7956C149.392 22.3271 151.39 22.1783 153.161 21.3756C154.372 20.854 155.477 20.1152 156.421 19.1956C156.63 19.7218 156.906 20.2192 157.241 20.6756C157.552 21.1512 157.986 21.5341 158.496 21.784C159.006 22.0339 159.575 22.1416 160.141 22.0956C160.847 21.9836 161.526 21.7393 162.141 21.3756V22.1756C162.131 22.7891 162.255 23.3974 162.504 23.9577C162.754 24.5181 163.124 25.017 163.587 25.4192C164.05 25.8215 164.596 26.1173 165.186 26.286C165.776 26.4547 166.395 26.4921 167.001 26.3956C166.989 26.5287 166.989 26.6626 167.001 26.7956C167.201 27.8756 166.781 31.1356 168.281 31.5156C169.781 31.8956 168.961 28.1556 171.841 27.6956C172.359 27.5694 172.904 27.6282 173.383 27.862C173.861 28.0958 174.243 28.4898 174.461 28.9756C175.021 30.7756 174.461 31.5756 173.521 33.3556L172.901 34.0556C171.941 35.0956 170.901 36.1956 170.901 37.1956C170.961 40.2548 170.382 43.2929 169.201 46.1156C168.185 48.9769 166.399 51.5028 164.041 53.4156C163.924 53.5059 163.832 53.6256 163.776 53.7626C163.72 53.8996 163.701 54.0489 163.721 54.1956L165.361 63.8156L155.001 70.8556C153.181 69.4556 155.601 71.5356 145.641 63.8356L146.721 54.5356C146.74 54.365 146.708 54.1927 146.63 54.0399C146.552 53.8871 146.43 53.7605 146.281 53.6756C139.101 49.6556 139.661 39.7156 138.801 38.3356V38.3356ZM115.601 76.1356C121.073 72.2171 127.155 69.2301 133.601 67.2956C137.263 71.5086 141.155 75.5147 145.261 79.2956C146.141 80.0556 147.261 80.9956 148.041 80.1956C148.321 79.8756 148.741 79.4556 149.221 78.9756C149.72 80.7112 150.308 82.4201 150.981 84.0956C151.061 84.2439 151.169 84.3749 151.299 84.4813C151.43 84.5877 151.58 84.6673 151.741 84.7156C151.521 87.2956 150.981 94.7156 150.361 102.936C144.016 101.574 137.527 100.996 131.041 101.216C131.041 100.696 131.681 94.5356 131.701 94.3356C131.701 93.2556 131.701 91.8356 131.821 91.2756C131.845 91.1881 131.833 91.0947 131.788 91.0159C131.743 90.9372 131.669 90.8795 131.581 90.8556C131.494 90.8318 131.4 90.8436 131.321 90.8886C131.243 90.9337 131.185 91.0081 131.161 91.0956C129.381 94.7156 129.701 97.2756 129.941 101.276C125.468 101.497 121.083 102.605 117.041 104.536C116.959 104.578 116.897 104.651 116.869 104.74C116.841 104.828 116.849 104.923 116.891 105.006C116.934 105.088 117.007 105.15 117.095 105.178C117.183 105.206 117.279 105.198 117.361 105.156C131.361 98.3156 156.761 104.796 170.261 110.616C171.203 111.002 172.118 111.449 173.001 111.956C173.617 115.109 173.805 118.332 173.561 121.536C173.561 122.436 173.561 122.656 171.961 123.276C170.821 123.736 169.461 124.056 168.621 124.376C165.881 125.396 163.241 126.376 160.621 127.376C145.831 132.123 130.719 135.799 115.401 138.376C110.421 138.376 103.861 137.456 100.201 134.016C84.3611 119.196 100.921 86.2156 115.601 76.1356V76.1356ZM40.6411 59.1956C38.7823 58.1237 37.1948 56.6388 36.0011 54.8556C32.8811 50.0156 32.8411 42.0956 33.3611 36.3756C36.1553 35.506 38.6953 33.9683 40.7611 31.8956C42.9971 29.6106 44.951 27.0658 46.5811 24.3156L47.7011 22.1556C49.7287 27.3418 53.1987 31.839 57.7011 35.1156C59.2666 35.8323 60.9602 36.2268 62.6811 36.2756C62.6419 37.8442 62.81 39.4111 63.1811 40.9356C63.2211 41.0164 63.2771 41.0881 63.3458 41.1464C63.4145 41.2047 63.4944 41.2483 63.5806 41.2745C63.6668 41.3007 63.7574 41.3091 63.847 41.2989C63.9365 41.2888 64.023 41.2605 64.1011 41.2156C64.9811 40.7356 65.3211 38.1556 66.6811 36.3756C67.0411 35.8756 67.4611 35.4956 67.9811 35.6156C68.5296 35.6996 69.0504 35.9121 69.5011 36.2356C71.5011 37.7156 69.9011 43.6356 66.1611 45.4756C65.0411 46.0356 59.2011 52.8356 58.8211 54.9756C58.5709 56.1511 58.633 57.3716 59.0011 58.5156C59.1211 60.2556 59.3211 62.5156 59.4611 64.5156C55.7611 64.5156 46.7411 64.5156 43.0411 64.6956C43.2211 59.7556 43.3211 60.2756 40.6411 59.1956V59.1956ZM78.0011 278.776H62.9011C65.2011 250.296 68.0011 180.456 67.4011 155.716C70.0678 155.596 72.4678 155.436 74.6011 155.236C79.1611 178.816 81.7011 255.716 78.0011 278.776V278.776ZM28.0011 276.956C25.8411 253.096 28.0011 175.656 33.7211 154.956C34.7211 155.096 41.8811 155.736 41.8811 155.736C38.8411 180.176 35.7211 250.316 36.8011 277.736C33.5611 277.496 30.6011 277.196 27.8811 276.956H28.0011ZM50.1211 154.276L42.6011 153.976C42.5837 151.82 42.7375 149.667 43.0611 147.536L45.7611 147.336L51.6011 147.196C51.3135 149.594 50.8183 151.963 50.1211 154.276ZM26.9611 147.696L41.4411 147.416C41.0357 149.619 40.8481 151.856 40.8811 154.096C35.4476 154.052 30.0304 153.496 24.7011 152.436C26.1811 149.196 26.8011 148.096 26.9611 147.696ZM43.2611 278.096C42.6011 253.136 46.6611 176.776 49.2611 155.836C52.0011 155.836 54.0411 155.976 59.7211 155.836C59.7211 165.316 56.8811 266.836 56.2211 278.536C52.8011 278.536 44.1411 278.156 43.2611 278.096V278.096ZM51.6611 154.296C52.1519 151.961 52.3933 149.581 52.3811 147.196C65.5211 146.956 78.3811 146.636 84.1811 147.416C84.9713 148.809 85.6404 150.268 86.1811 151.776C74.8811 154.196 62.2011 154.296 51.6611 154.296V154.296ZM14.0011 274.196C10.5411 271.996 9.42114 209.916 13.6611 185.156C15.8177 174.073 19.4008 163.317 24.3211 153.156L26.4211 153.596C20.8211 173.816 18.5811 247.296 21.3611 276.016C18.8356 275.751 16.3588 275.139 14.0011 274.196V274.196ZM42.9411 364.196C37.3811 364.956 34.3811 365.396 32.2011 365.876C30.9502 365.993 29.6992 365.652 28.6811 364.916C30.3211 363.936 30.6811 364.076 30.6811 363.136C30.8611 359.256 26.9011 286.136 26.4211 278.396C35.5411 279.436 46.9411 279.996 56.0611 280.256C52.9611 299.336 44.3611 354.416 42.8811 364.256L42.9411 364.196ZM87.7011 360.076C82.6211 361.496 79.4411 362.416 77.3011 363.216C76.0765 363.506 74.7878 363.335 73.6811 362.736C75.1211 361.596 75.4211 361.676 75.3411 360.736C74.9811 356.736 60.8811 284.396 60.0811 280.376C71.4011 280.616 82.0811 280.496 89.0211 280.016C88.5611 302.476 87.7611 350.916 87.6411 360.136L87.7011 360.076ZM92.7811 169.656C99.4611 193.316 100.141 265.656 95.6411 277.276C93.9611 278.116 86.4211 278.436 84.5811 278.516C88.5811 253.616 86.5811 178.516 82.0011 154.256C83.8811 153.956 85.5611 153.636 87.1211 153.296C89.3411 159.356 92.2611 168.076 92.7211 169.716L92.7811 169.656ZM78.6611 111.196C77.8011 110.416 76.9611 109.716 76.2411 108.956C76.1854 108.884 76.1036 108.837 76.0136 108.826C75.9235 108.815 75.8327 108.84 75.7611 108.896C75.6895 108.951 75.643 109.033 75.6317 109.123C75.6205 109.213 75.6454 109.304 75.7011 109.376C79.1211 114.976 83.8611 117.676 86.4011 119.976C85.7611 122.416 85.1011 137.036 84.4011 145.696C79.1211 144.476 51.5411 145.916 42.2811 145.916C42.0701 145.919 41.8688 146.005 41.7211 146.156C34.4411 146.496 28.7011 146.836 27.1011 146.936C26.1411 144.696 24.9411 141.076 24.2011 138.776C27.4444 139.358 30.7678 139.331 34.0011 138.696C34.0567 139.912 34.3206 141.109 34.7811 142.236C35.7811 143.116 69.0611 140.736 70.1211 140.516C70.8411 140.356 70.8611 139.356 70.9211 138.516C71.1011 136.516 71.2211 132.116 71.3011 126.956C71.6107 126.832 71.8897 126.643 72.1189 126.401C72.348 126.159 72.5219 125.87 72.6284 125.554C72.7349 125.239 72.7716 124.904 72.7358 124.572C72.7 124.241 72.5926 123.921 72.4211 123.636C72.6551 123.338 72.8257 122.995 72.9225 122.629C73.0193 122.263 73.0402 121.881 72.984 121.506C72.9278 121.132 72.7957 120.772 72.5957 120.451C72.3958 120.129 72.1322 119.852 71.8211 119.636C72.0797 119.384 72.2764 119.075 72.3959 118.734C72.5153 118.394 72.5543 118.03 72.5098 117.671C72.4652 117.313 72.3384 116.97 72.1391 116.669C71.9398 116.368 71.6735 116.117 71.3611 115.936C71.3611 108.716 71.3611 101.676 71.1011 97.7356C70.9811 94.4956 70.8811 94.1356 70.3811 93.7356C69.4011 93.1356 65.1811 93.3756 63.2811 93.4556C63.3074 92.6075 63.0774 91.7711 62.6211 91.0556C61.7011 90.1556 57.6411 91.0556 55.2811 91.0556C54.7611 89.3956 54.5011 88.1556 52.6611 87.2956C51.7554 86.9757 50.7632 87.0031 49.8765 87.3726C48.9898 87.742 48.2717 88.4272 47.8611 89.2956C47.8611 89.4956 47.2811 91.1356 47.1611 91.6756C45.015 91.838 42.8788 92.1117 40.7611 92.4956C40.0011 92.7356 39.9411 94.3356 39.9211 95.4556C32.3011 96.2556 31.8011 96.2556 31.6611 97.0356C31.5211 97.8156 32.0811 110.536 32.1211 111.596C30.2511 111.833 28.4 112.201 26.5811 112.696C26.9596 110.212 27.1866 107.707 27.2611 105.196C27.2611 104.096 27.3611 99.3956 26.7011 99.3756C26.0411 99.3556 25.6411 103.976 25.5811 104.896C25.4611 106.296 25.2811 111.516 25.3811 113.076C24.5411 113.336 23.7411 113.616 22.9211 113.936C22.8363 113.967 22.7675 114.032 22.73 114.114C22.6925 114.197 22.6893 114.291 22.7211 114.376C22.753 114.46 22.8172 114.529 22.8997 114.567C22.9822 114.604 23.0763 114.607 23.1611 114.576C34.4611 110.676 49.7611 112.856 58.1411 117.056L58.5211 125.476C51.2811 130.536 39.7611 136.796 30.9611 137.916C28.3659 138.216 25.7419 138.162 23.1611 137.756C8.00114 135.796 0.181137 124.936 1.28114 109.336C2.14114 97.1956 6.00114 85.4556 15.3211 77.6756C21.3211 72.6956 32.7811 70.9956 40.5811 71.6756C42.5811 71.8356 41.5011 67.5156 42.0211 65.9556C42.7811 65.8356 45.2011 65.7956 46.0211 65.7756C45.9219 67.1538 45.9219 68.5374 46.0211 69.9156C46.0211 70.4956 46.4411 72.6756 46.9611 72.5156C47.4811 72.3556 47.6811 70.6556 47.7011 70.1756C47.7211 69.6956 47.7011 69.6356 47.5211 65.7756H54.1811C54.1006 67.1077 54.1006 68.4435 54.1811 69.7756C54.1811 70.3556 54.6011 72.5356 55.1211 72.3756C55.6411 72.2156 55.8411 70.5156 55.8611 70.0356C55.8811 69.5556 55.8611 68.5556 55.6811 65.8156H60.5611C60.7612 66.4639 60.869 67.1372 60.8811 67.8156C60.8811 70.1356 60.4811 70.4756 60.8811 70.9356C61.9611 72.1556 71.7611 67.3156 100.421 91.1756C95.0811 100.176 90.8611 111.956 92.4211 122.336C87.7611 119.196 88.6611 120.176 78.6611 111.196V111.196ZM33.5611 111.376C33.3611 104.676 33.2011 98.5556 33.2011 97.8156C34.7811 97.5756 38.3611 97.2156 39.9411 97.0556C39.9411 99.9956 40.0611 100.196 41.9411 100.396C45.5211 100.816 61.3011 100.396 62.9611 98.9756C63.1117 98.8537 63.2287 98.6954 63.3011 98.5156C63.4279 97.4136 63.4547 96.3024 63.3811 95.1956C65.3329 95.0855 67.2894 95.0855 69.2411 95.1956C69.6211 98.7556 69.6611 111.896 69.6611 115.476C68.9101 115.482 68.1635 115.59 67.4411 115.796C67.7211 114.156 68.1411 111.496 66.4811 111.136C66.0368 111.009 65.5649 111.015 65.1241 111.153C64.6832 111.292 64.2927 111.557 64.0011 111.916C63.135 113.251 62.6254 114.787 62.5211 116.376C61.6054 116.379 60.6903 116.325 59.7811 116.216C59.7502 116.107 59.6968 116.007 59.6245 115.921C59.5521 115.835 59.4624 115.765 59.3611 115.716C51.3062 111.983 42.3899 110.504 33.5611 111.436V111.376ZM71.1611 122.436C70.3811 122.896 69.8811 122.576 68.4811 122.756C68.2637 122.756 68.0551 122.842 67.9013 122.996C67.7475 123.15 67.6611 123.358 67.6611 123.576C67.6611 123.793 67.7475 124.002 67.9013 124.155C68.0551 124.309 68.2637 124.396 68.4811 124.396C69.1461 124.464 69.8162 124.464 70.4811 124.396C70.6411 124.396 71.2211 124.516 71.2211 124.676C71.2211 126.496 67.6411 125.796 66.0611 124.876C64.1038 124.756 62.1397 124.945 60.2411 125.436L59.8411 117.196C60.9293 117.487 62.0641 117.562 63.1811 117.416C63.3359 117.329 63.4507 117.186 63.5011 117.016C63.9611 115.336 64.3411 112.236 66.1011 112.676C66.2045 113.935 66.0757 115.203 65.7211 116.416C65.5211 117.656 66.0011 117.936 66.9411 117.856C67.7812 117.478 68.6821 117.255 69.6011 117.196C70.1211 117.196 70.6411 117.196 70.8011 117.796C70.9611 118.396 70.4411 118.616 69.9411 118.796C69.4411 118.976 67.4811 119.256 67.2811 119.296C67.0834 119.358 66.9148 119.49 66.8064 119.666C66.6981 119.843 66.6571 120.053 66.6912 120.257C66.7253 120.462 66.8321 120.647 66.9919 120.779C67.1518 120.911 67.3539 120.981 67.5611 120.976C69.9811 120.716 69.5611 120.596 70.2811 120.756C70.5947 120.829 70.8734 121.009 71.0701 121.264C71.2669 121.519 71.3696 121.834 71.3611 122.156C71.3645 122.226 71.3474 122.295 71.3119 122.355C71.2763 122.416 71.2239 122.465 71.1611 122.496V122.436ZM60.1411 126.256C61.905 126.022 63.6819 125.902 65.4611 125.896C66.7097 126.684 68.1455 127.126 69.6211 127.176C69.6211 130.756 69.6211 137.176 69.3811 139.056C65.0211 139.516 39.6011 141.996 35.2411 141.596C35.0103 140.569 34.8565 139.526 34.7811 138.476C45.8211 136.196 59.5811 127.376 60.1411 126.316V126.256ZM132.141 371.276C129.862 371.424 127.572 371.303 125.321 370.916V369.916C125.298 369.676 125.183 369.454 125.001 369.296C124.461 368.876 124.881 369.176 110.881 370.956L106.301 371.476C105.861 371.476 105.361 371.696 105.361 371.476C104.281 371.196 102.701 369.296 103.361 368.596C107.099 365.597 111.042 362.863 115.161 360.416C121.381 361.156 128.821 361.676 133.421 361.816C133.218 365.014 132.797 368.195 132.161 371.336L132.141 371.276ZM199.721 359.756C201.581 359.756 203.441 359.656 205.221 359.556C207.921 361.216 216.841 366.716 219.041 368.976C219.401 369.356 219.041 370.096 218.721 370.516C217.441 372.276 216.461 371.836 216.101 371.796C212.701 371.516 201.441 369.936 198.101 369.456C197.985 369.439 197.867 369.446 197.753 369.477C197.64 369.507 197.534 369.561 197.443 369.634C197.351 369.707 197.275 369.798 197.22 369.902C197.164 370.005 197.131 370.119 197.121 370.236V371.236C194.879 371.642 192.595 371.769 190.321 371.616C189.512 367.72 189.097 363.754 189.081 359.776C189.041 359.196 188.441 360.016 199.741 359.816L199.721 359.756ZM190.001 157.996C179.741 157.996 130.941 159.216 122.621 160.156C122.421 156.756 120.101 142.776 119.541 139.416C129.194 137.754 138.753 135.592 148.181 132.936C147.946 134.296 147.886 135.68 148.001 137.056C150.412 139.967 153.09 142.645 156.001 145.056C156.152 145.174 156.332 145.25 156.522 145.275C156.712 145.3 156.905 145.272 157.081 145.196C159.941 142.808 162.393 139.971 164.341 136.796C164.424 135.141 164.31 133.483 164.001 131.856C169.561 133.856 184.641 137.016 192.201 136.896C191.841 141.036 190.321 155.876 190.001 157.996V157.996ZM211.201 176.456C216.321 141.196 221.101 129.516 221.201 126.916C224.37 125.538 227.321 123.705 229.961 121.476C230.999 120.555 231.974 119.566 232.881 118.516C233.221 118.196 232.761 117.696 232.441 117.996C232.121 118.296 231.341 118.716 230.781 119.076C223.981 123.636 222.421 125.296 214.441 128.136C216.184 126.414 217.505 124.313 218.301 121.996C221.801 110.176 216.981 97.9956 209.321 88.4156C218.455 82.7733 228.171 78.1331 238.301 74.5756C242.296 73.2365 246.388 72.2068 250.541 71.4956C250.691 72.3709 250.967 73.2197 251.361 74.0156C254.561 93.6756 248.241 150.896 244.481 169.896C242.301 180.936 238.141 197.036 233.361 207.336C233.042 208.099 232.661 208.835 232.221 209.536C229.701 210.376 212.021 208.896 209.281 208.636C207.241 204.936 210.621 180.736 211.241 176.456H211.201ZM295.801 360.456H280.621C280.621 359.856 269.341 280.076 269.021 278.976C270.301 270.756 279.021 226.656 278.721 215.636C278.721 215.545 278.685 215.459 278.622 215.395C278.558 215.331 278.471 215.296 278.381 215.296C278.291 215.296 278.204 215.331 278.141 215.395C278.077 215.459 278.041 215.545 278.041 215.636C278.041 216.796 277.681 219.036 277.201 222.016C269.781 268.336 264.081 295.016 251.321 359.096L235.881 358.936C225.761 294.936 220.801 263.896 220.541 211.296C222.661 211.416 231.461 211.976 233.161 211.116C233.761 210.816 234.381 209.476 234.761 208.696C237.764 201.841 240.238 194.767 242.161 187.536C255.861 188.296 291.061 189.936 297.121 190.256C299.701 202.416 299.881 203.116 300.601 203.376C302.888 203.959 305.225 204.327 307.581 204.476C307.741 245.016 305.621 320.996 295.841 360.356L295.801 360.456ZM371.801 55.1756C369.041 61.6356 363.161 93.9556 336.241 112.836C330.981 116.516 321.401 117.836 315.001 118.016C314.712 114.87 314.109 111.761 313.201 108.736C312.801 107.496 312.201 106.036 311.841 105.156C311.804 105.083 311.742 105.024 311.667 104.991C311.592 104.958 311.508 104.951 311.429 104.972C311.349 104.993 311.279 105.04 311.231 105.107C311.182 105.173 311.158 105.254 311.161 105.336C312.261 114.096 312.441 110.996 313.641 118.916C313.641 118.916 316.941 141.256 317.061 142.356C318.601 156.356 319.581 197.436 318.021 203.136C312.499 203.265 306.977 202.836 301.541 201.856C299.401 194.716 278.461 90.9956 278.001 73.4756C283.301 74.4356 303.741 81.7956 320.861 82.3356C336.141 82.7956 359.121 50.3356 359.321 50.3356C360.901 50.0556 369.621 53.7556 371.821 55.0756L371.801 55.1756ZM378.501 40.5956C378.341 43.1756 375.341 44.9156 373.121 46.2756C372.341 46.7756 370.581 52.7156 370.361 53.5556C367.596 52.2643 364.758 51.1357 361.861 50.1756C363.861 47.1356 365.601 45.5356 364.841 44.8156C363.461 43.5556 360.841 41.8556 362.201 40.4356C362.369 40.4722 362.531 40.5328 362.681 40.6156C364.581 41.5156 366.101 43.9556 366.921 42.4556C367.288 40.6931 367.789 38.9613 368.421 37.2756C369.481 34.8156 370.141 35.2756 369.881 37.6756C369.654 39.316 369.245 40.926 368.661 42.4756C368.592 42.6931 368.612 42.9291 368.717 43.1316C368.822 43.3341 369.004 43.4867 369.221 43.5556C369.439 43.6246 369.675 43.6043 369.877 43.4993C370.08 43.3943 370.232 43.2131 370.301 42.9956C370.8 41.2259 371.548 39.5358 372.521 37.9756C373.501 36.5356 374.681 36.1756 374.641 37.1556C374.33 38.9125 373.648 40.5829 372.641 42.0556C372.383 42.4149 372.225 42.8357 372.181 43.2756C372.149 43.4624 372.182 43.6547 372.275 43.8197C372.369 43.9847 372.516 44.1123 372.693 44.1806C372.87 44.249 373.065 44.254 373.245 44.1947C373.425 44.1355 373.579 44.0156 373.681 43.8556C374.282 43.0159 374.951 42.2266 375.681 41.4956C376.861 40.3356 378.581 39.5356 378.521 40.4956L378.501 40.5956Z" fill="black"/>
<path d="M153.261 42.1559C154.081 44.0159 158.561 42.8559 157.681 41.9159C157.618 41.8524 157.531 41.8167 157.441 41.8167C157.351 41.8167 157.265 41.8524 157.201 41.9159C156.935 42.0016 156.648 42.0016 156.381 41.9159C155.836 41.8376 155.304 41.6828 154.801 41.4559V33.9359C154.782 33.8573 154.738 33.7874 154.674 33.7374C154.611 33.6874 154.532 33.6602 154.451 33.6602C154.37 33.6602 154.292 33.6874 154.228 33.7374C154.165 33.7874 154.12 33.8573 154.101 33.9359C153.383 36.1205 153.078 38.4196 153.201 40.7159C153.151 41.1963 153.171 41.6814 153.261 42.1559ZM147.461 37.1959C147.461 36.6559 147.461 36.0759 147.341 35.5759C147.302 35.3528 147.178 35.1535 146.996 35.0194C146.813 34.8853 146.586 34.8267 146.361 34.8559C146.248 34.8728 146.139 34.9124 146.041 34.9722C145.942 35.0319 145.857 35.1108 145.79 35.204C145.723 35.2972 145.675 35.4029 145.65 35.5149C145.624 35.6268 145.621 35.7428 145.641 35.8559C145.641 36.2159 145.641 36.6359 145.741 37.3159C145.749 37.4288 145.779 37.5391 145.83 37.6404C145.88 37.7418 145.95 37.8321 146.036 37.9064C146.121 37.9807 146.22 38.0375 146.328 38.0734C146.435 38.1093 146.548 38.1238 146.661 38.1159C146.774 38.108 146.884 38.078 146.986 38.0275C147.087 37.977 147.177 37.907 147.252 37.8216C147.326 37.7362 147.383 37.6369 147.419 37.5296C147.455 37.4222 147.469 37.3088 147.461 37.1959V37.1959ZM160.961 37.0559C160.961 37.284 161.052 37.5027 161.213 37.664C161.374 37.8253 161.593 37.9159 161.821 37.9159C162.049 37.9159 162.268 37.8253 162.429 37.664C162.591 37.5027 162.681 37.284 162.681 37.0559V36.1559C162.796 35.9935 162.852 35.7972 162.841 35.5989C162.829 35.4005 162.751 35.2118 162.619 35.0635C162.487 34.9151 162.309 34.8158 162.113 34.7818C161.917 34.7477 161.716 34.7809 161.541 34.8759C160.761 35.3759 160.961 36.3759 160.961 37.0559ZM156.921 49.4159C156.202 49.8163 155.445 50.1446 154.661 50.3959C154.221 50.3959 154.121 51.0159 154.661 51.0759C155.169 51.3311 155.733 51.4549 156.301 51.4359C156.882 51.3673 157.439 51.1678 157.931 50.8525C158.423 50.5373 158.836 50.1144 159.141 49.6159C159.388 49.0853 159.492 48.4991 159.441 47.9159C159.46 47.8257 159.442 47.7319 159.391 47.655C159.341 47.5781 159.261 47.5245 159.171 47.5059C159.081 47.4873 158.987 47.5053 158.91 47.556C158.833 47.6066 158.78 47.6857 158.761 47.7759C158.215 48.3937 157.598 48.9442 156.921 49.4159V49.4159ZM268.561 50.7759C270.081 51.2559 272.561 51.5759 273.621 50.3759C274.681 49.1759 274.101 46.0559 273.981 44.7359C273.732 42.1438 273.167 39.5917 272.301 37.1359C272.283 37.0457 272.229 36.9666 272.152 36.916C272.075 36.8653 271.981 36.8473 271.891 36.8659C271.801 36.8845 271.722 36.9381 271.671 37.015C271.621 37.0919 271.603 37.1857 271.621 37.2759C271.621 37.8959 271.901 40.9559 271.961 41.7359C272.344 44.2835 272.478 46.8623 272.361 49.4359C271.913 49.7393 271.399 49.9313 270.861 49.9959C268.861 50.3359 268.401 49.8559 268.301 50.3759C268.289 50.4194 268.287 50.4648 268.294 50.5093C268.301 50.5538 268.317 50.5963 268.342 50.634C268.366 50.6718 268.399 50.7039 268.436 50.7284C268.474 50.7528 268.517 50.769 268.561 50.7759V50.7759ZM265.181 37.5959C265.181 36.9559 263.341 36.6359 262.141 36.8959C260.941 37.1559 259.301 38.4159 259.761 38.8959C260.221 39.3759 265.101 38.1759 265.181 37.5959ZM263.861 42.3759V44.0959C263.861 44.324 263.952 44.5427 264.113 44.704C264.274 44.8653 264.493 44.9559 264.721 44.9559C264.949 44.9559 265.168 44.8653 265.329 44.704C265.491 44.5427 265.581 44.324 265.581 44.0959V42.4359C265.587 42.2058 265.502 41.9828 265.345 41.8146C265.188 41.6463 264.971 41.5463 264.741 41.5359C264.515 41.5357 264.297 41.6229 264.133 41.7793C263.969 41.9358 263.872 42.1495 263.861 42.3759V42.3759ZM280.921 38.4159C281.081 38.1759 280.441 36.8959 278.921 36.4159C277.401 35.9359 276.241 36.6959 276.241 37.0559C276.241 37.4159 280.621 38.8559 280.921 38.4159ZM263.001 55.0559C262.541 55.1959 262.541 58.0759 265.281 58.8959C266.681 59.2959 268.581 59.0759 268.621 58.5759C268.661 58.0759 265.901 57.4759 265.001 56.8559C264.101 56.2359 263.381 54.9359 263.001 55.0559V55.0559ZM278.181 41.1959C278.068 41.1932 277.956 41.2129 277.851 41.2536C277.745 41.2944 277.649 41.3556 277.567 41.4336C277.486 41.5116 277.42 41.6049 277.374 41.7083C277.329 41.8116 277.304 41.923 277.301 42.0359V43.7359C277.333 43.944 277.438 44.1338 277.598 44.271C277.757 44.4082 277.961 44.4836 278.171 44.4836C278.382 44.4836 278.585 44.4082 278.745 44.271C278.904 44.1338 279.01 43.944 279.041 43.7359V42.0759C279.044 41.9613 279.024 41.8473 278.982 41.7406C278.94 41.634 278.877 41.5368 278.797 41.4548C278.716 41.3728 278.621 41.3077 278.515 41.2632C278.409 41.2188 278.296 41.1959 278.181 41.1959V41.1959Z" fill="black"/>
</svg>
